<svg width="16" height="29" xmlns="http://www.w3.org/2000/svg"><g id="Page-1" stroke="none" stroke-width="1" fill="none" fill-rule="evenodd" fill-opacity=".5" stroke-opacity=".497"><g id="Mobile-375-updated" transform="translate(-14 -1322)" fill="#DAB47C" stroke="#DAB47C" stroke-width=".7"><g id="pop-up-" transform="translate(0 949)"><g id="Slider-Controls" transform="translate(15 374)"><path d="M.216 12.96 12.726.223a.744.744 0 0 1 1.063.001.772.772 0 0 1-.001 1.08L1.81 13.498l11.974 12.194a.775.775 0 0 1 .164.832.755.755 0 0 1-.691.476.724.724 0 0 1-.528-.226L.222 14.036a.77.77 0 0 1-.006-1.076Z" id="Arrow_Left"/></g></g></g></g></svg>