<svg width="17" height="17" xmlns="http://www.w3.org/2000/svg"><g id="Page-1" stroke="none" stroke-width="1" fill="none" fill-rule="evenodd"><g id="Mobile-375" transform="translate(-202 -4116)" fill="#333"><g id="footer" transform="translate(-37 4010)"><g id="Social-Icons" transform="translate(212.382 106.707)"><path d="M38.584 0h-7.169A4.42 4.42 0 0 0 27 4.414v7.17A4.42 4.42 0 0 0 31.415 16h7.169A4.42 4.42 0 0 0 43 11.584v-7.17A4.42 4.42 0 0 0 38.584 0Zm2.996 11.585a3 3 0 0 1-2.995 2.996h-7.17a3 3 0 0 1-2.995-2.996v-7.17a3 3 0 0 1 2.995-2.995h7.169a3 3 0 0 1 2.996 2.995v7.17Zm-6.577-7.708a4.123 4.123 0 1 0 0 8.247A4.123 4.123 0 0 0 35 3.876l.003.001Zm0 6.826a2.703 2.703 0 1 1 .005-5.404A2.703 2.703 0 0 1 35 10.702l.003.001Zm4.296-8.028a1.04 1.04 0 1 0 .736.304 1.047 1.047 0 0 0-.739-.305h.003Z" id="Instagram"/></g></g></g></g></svg>