<svg width="44" height="49" xmlns="http://www.w3.org/2000/svg"><g id="Page-1" stroke="none" stroke-width="1" fill="none" fill-rule="evenodd"><g id="Mobile-375" transform="translate(-190 -812)"><g id="main-screen" transform="translate(-18.604)"><g id="Icons+text" transform="translate(38.604 812.815)"><g id="maple-leaf-icon" transform="translate(171.102)"><path d="M27.258 45.26c.543-2.216-.448-6.158-2.972-11.828 3.138 3.403 5.105 7.411 5.902 12.024.215 1.153-.318 1.73-1.601 1.73s-1.726-.643-1.33-1.927Z" id="Path-7" stroke="#3D3E3C" stroke-width=".642"/><path d="M24.648 34.17c3.757.658 7.081.521 9.973-.41 4.338-1.396 4.68-3.227 7.04-2.312-1.11-2.268-5.643-2.097-4.234-7.179 1.409-5.082 2.86-3.634 4.235-6.38 1.373-2.746-1.636-8.836-1.05-12.125-2.927 2.837-7.93 4.106-8.517 5.24-.588 1.134-1.738 6.433-3.315 5.98-1.577-.454-1.796-6.76-2.777-8.746C25.022 6.25 19.04 5.346 18.53 0c-.638 6.951-2.064 7.572-2.673 8.829-.609 1.257-.687 6.287-.432 7.443.254 1.157.632 2.889 0 2.889-.633 0-5.945-.856-8.812-.428-2.866.428-4.867 3.196-6.612 1.176 2.79 3.346 3.746 6.3 5.913 7.037 2.167.738 6.727 2.856 6.727 4.835s-2.37 5.14-2.902 6.756c1.566-1.062 3.758-.53 5.686-.53 1.285 0 4.36-1.278 9.224-3.836Z" id="Path-8" stroke="#3D3E3C" stroke-width=".599" fill="#3D3E3C"/><g id="Group-6" transform="translate(7.054 8.481)" stroke="#EEEAE9" stroke-linecap="round" stroke-width=".642"><path d="M17.779 24.495c2.65-4.88 5.388-9.207 8.216-12.982 2.827-3.774 4.322-6.18 4.483-7.216" id="Path-2"/><path d="M17.356 24.065c-1.537-4.513-2.306-8.224-2.306-11.133 0-4.363-.954-10.967-1.504-12.932" id="Path-3"/><path d="M17.779 24.065c-3.735-2.083-6.538-3.851-8.408-5.306C6.566 16.577 2.496 14.523 0 13.752" id="Path-4"/><path d="M17.779 24.065c3.18-2.975 6.707-4.02 10.583-3.132" id="Path-5"/><path d="M17.356 24.3c-2.21-.524-4.609-.173-7.197 1.054" id="Path-6"/></g><path d="M27.352 28.392c.484-1.933.377-3.336-.323-4.207" id="Path-9" stroke="#EEEAE9" stroke-width=".642" stroke-linecap="round"/><path d="M30.124 23.49c.43-.762.43-1.754 0-2.976" id="Path-10" stroke="#EEEAE9" stroke-width=".642" stroke-linecap="round"/><path d="M33.254 19.268s1.655-2.59 1.103-4.79" id="Path-11" stroke="#EEEAE9" stroke-width=".642" stroke-linecap="round"/><path d="M32.22 21.717c1.453-.802 2.884-1.203 4.292-1.203" id="Path-12" stroke="#EEEAE9" stroke-width=".642" stroke-linecap="round"/><path d="M31.183 29.109c.322-1.323 1.012-2.326 2.07-3.008" id="Path-13" stroke="#EEEAE9" stroke-width=".642" stroke-linecap="round"/><path d="M19.006 28.711c.484-.902.646-2.1.484-3.593" id="Path-14" stroke="#EEEAE9" stroke-width=".642" stroke-linecap="round"/><path d="M15.944 26.915c.318-2.236.164-3.968-.464-5.198" id="Path-15" stroke="#EEEAE9" stroke-width=".642" stroke-linecap="round"/><path d="M12.157 24.592c-2.147 1.093-3.848 1.366-5.103.82" id="Path-16" stroke="#EEEAE9" stroke-width=".642" stroke-linecap="round"/><path d="M22.505 21.159c1.022-.083 1.957-.818 2.806-2.205" id="Path-17" stroke="#EEEAE9" stroke-width=".642" stroke-linecap="round"/><path d="M22.293 15.862c1.57-1.78 2.355-3.37 2.355-4.773" id="Path-18" stroke="#EEEAE9" stroke-width=".642" stroke-linecap="round"/><path d="M21.7 15.862c-2.991-.929-4.487-1.957-4.487-3.083" id="Path-19" stroke="#EEEAE9" stroke-width=".642" stroke-linecap="round"/><path d="M21.972 21.159c-1.821.22-3.154-.147-3.997-1.103" id="Path-20" stroke="#EEEAE9" stroke-width=".642" stroke-linecap="round"/><path d="M19.55 32.547c-1.646-.735-2.795-1.103-3.445-1.103" id="Path-21" stroke="#EEEAE9" stroke-width=".642" stroke-linecap="round"/></g></g></g></g></g></svg>