<svg width="52" height="36" xmlns="http://www.w3.org/2000/svg"><g id="Page-1" stroke="none" stroke-width="1" fill="none" fill-rule="evenodd"><g id="Mobile-375" transform="translate(-20 -818)"><g id="main-screen" transform="translate(-18.604)"><g id="Icons+text" transform="translate(38.604 812.815)"><g id="meat-icon" transform="translate(0 6.05)"><path d="M18.552 21.245c-.427.913-.62 2.152.141 2.813.5.434 1.233.439 1.893.386 1.319-.107 2.627-.35 3.896-.727.907-.27 1.834-.634 2.447-1.354.98-1.15.884-2.837.734-4.339-.074-.741-.152-1.497-.453-2.179-.301-.682-.87-1.29-1.6-1.444-.699-.147-1.433.144-1.98.602-.548.457-3.585 3.048-5.078 6.242" id="Fill-223" fill="#3D3E3C"/><path d="M23.888 7.772c-1.843-1.61-3.94-2.956-6.198-3.908-2.258-.951-4.855-1.328-7.168-.52-2.086.73-3.767 2.369-4.89 4.269-1.122 1.9-1.735 4.055-2.181 6.215-.641 3.106-.94 6.434.271 9.367.68 1.647 2.082 3.233 3.868 3.239 1.921.005 3.314-1.734 4.5-3.24a46.989 46.989 0 0 1 8.516-8.36c1.135-.86 2.344-1.706 3.066-2.932.721-1.226 1.41-3.087.216-4.13" id="Fill-224" fill="#3D3E3C"/><path d="M46.215 9.843c-2.105-2.26-5.711-3.06-8.804-3.109-3.093-.048-10.18-1.009-10.796.073-1.185 2.079 4.755 5.81 3.681 8.83-.37 1.044-.987 1.998-1.244 3.074-.257 1.076-.032 2.394.921 2.96 1.205.714 3.08.828 4.448.523 2.33-.517 4.317-.339 6.702-.386 2.736-.054 5.364-1.825 6.433-4.338 1.069-2.512.521-5.627-1.341-7.627Zm-4.066 6.401c-1.264.399-2.78-.333-3.237-1.574-.456-1.241.24-2.787 1.477-3.26 1.238-.471 2.8.231 3.251 1.474.553 1.521-.228 2.961-1.491 3.36Z" id="Fill-225" fill="#3D3E3C"/><path d="M44.043 29.21c-5.087.193-10.2.636-15.101 2.01-2.899.814-5.701 1.946-8.612 2.714-2.91.768-5.999 1.162-8.928.468-2.93-.694-5.681-2.625-6.482-5.028 4.529.673 9.135-.325 13.535-1.589s8.763-2.807 13.32-3.259c3.428-.34 6.915-.055 10.306-.662 3.39-.607 6.85-2.349 8.354-5.37-.146 4.136-2.395 8.143-6.392 10.715" id="Fill-226" fill="#3D3E3C"/><path d="M18.23 32.21c-1.133.208-2.23.565-3.389.609-1.017.038-2.028-.16-2.878-.739-.374-.255-.722.35-.354.604 1.977 1.368 4.68.902 6.769.06.328-.133.21-.6-.148-.535" id="Fill-227" fill="#FFFFFE"/><path d="M21.598 31.386a.39.39 0 0 0-.248-.22c-.145-.053-.276.011-.406.063l-.224.09-.456.18a.434.434 0 0 0-.238.183.404.404 0 0 0-.04.306c.03.096.09.189.182.237.09.047.21.08.307.04l.465-.184.232-.093c.151-.06.328-.105.407-.263a.385.385 0 0 0 .019-.339" id="Fill-228" fill="#FFFFFE"/><path d="M46.075 25.791c-.144-.132-.425-.174-.563 0a3.193 3.193 0 0 1-.492.497l-.019.014c-.012.01-.024.018-.037.027a3.242 3.242 0 0 1-.495.295c-.042.02-.083.041-.126.06-.018.01-.037.018-.056.027l-.006.003h-.001a6.64 6.64 0 0 1-.546.188.344.344 0 0 0-.247.377c.022.159.167.31.339.298.455-.03.883-.163 1.278-.393.369-.215.704-.498.97-.832.13-.162.171-.405 0-.56" id="Fill-229" fill="#FFFFFE"/><path d="M7.022 22.602a4.816 4.816 0 0 1-.867-1.173 3.356 3.356 0 0 1-.356-1.35.361.361 0 0 0-.354-.353c-.187 0-.361.162-.354.354.038 1.149.582 2.35 1.596 2.954.272.162.553-.209.335-.432" id="Fill-230" fill="#FFFFFE"/><path d="M8.041 21.483c-.04-.168-.11-.324-.18-.482-.06-.138-.13-.273-.195-.409a.324.324 0 0 0-.192-.147.323.323 0 0 0-.394.223.356.356 0 0 0 .032.247c.066.136.13.273.201.406.035.065.068.132.108.194.052.08.106.156.166.231l.055.042c.031.02.065.031.101.033a.26.26 0 0 0 .173-.033.28.28 0 0 0 .125-.305" id="Fill-231" fill="#FFFFFE"/><path d="M36.091 8.052c-.65-.25-1.383-.32-2.075-.356-.704-.038-1.409-.011-2.109.072-.166.02-.305.127-.307.306-.002.15.143.327.307.307a12.3 12.3 0 0 1 2.07-.078c.688.033 1.366.159 2.052.205.28.019.29-.368.062-.456" id="Fill-232" fill="#FFFFFE"/><path d="M36.144 9.706c-.316-.172-.657-.279-.997-.392-.157-.052-.352.06-.389.22a.323.323 0 0 0 .22.388c.318.106.63.217.963.265.07.01.14.014.203-.026a.273.273 0 0 0 .108-.126.262.262 0 0 0-.108-.329" id="Fill-233" fill="#FFFFFE"/><path d="M8.54 30.16c-2.968 0-5.186-.86-6.591-2.554-2.974-3.584-1.982-10.375-.71-17.024C2.316 4.946 5.196 2.358 7.422 1.18c2.783-1.473 6.118-1.572 9.15-.27 5.81 2.496 12.005 2.672 17.47 2.827 1.876.053 3.647.104 5.32.241 7.308.602 10.911 2.34 11.622 10.588.233 2.704-.417 4.909-1.933 6.555-2.383 2.59-6.925 3.847-13.887 3.847-4.039 0-7.967 1.178-12.126 2.424-4.54 1.36-9.234 2.767-14.497 2.767ZM12.216.734c-1.55 0-3.071.366-4.448 1.094-2.084 1.103-4.782 3.54-5.805 8.891-1.238 6.477-2.215 13.08.554 16.418 1.277 1.539 3.247 2.287 6.025 2.287 5.155 0 9.796-1.391 14.285-2.737 4.212-1.262 8.19-2.454 12.338-2.454 6.744 0 11.11-1.181 13.345-3.61 1.37-1.488 1.955-3.505 1.741-5.994-.67-7.771-3.919-9.34-10.95-9.92-1.652-.136-3.413-.186-5.278-.239-5.532-.157-11.802-.335-17.742-2.886a10.308 10.308 0 0 0-4.065-.85Z" id="Fill-234" fill="#3D3E3C"/><path d="M15.65 35.086c-.426 0-.855-.018-1.288-.057-6.576-.594-11.583-6.544-11.793-6.797a.367.367 0 1 1 .567-.469c.05.06 5.027 5.969 11.292 6.534 3.744.34 7.248-.968 10.637-2.23 2.439-.91 4.742-1.769 7.082-2.028 1.718-.19 3.29-.31 4.678-.416 3.14-.241 5.62-.432 7.697-1.244 5.221-2.044 5.485-10.387 5.487-10.471.005-.2.17-.359.368-.359h.01a.368.368 0 0 1 .359.376c-.002.09-.061 2.24-.808 4.69-1.003 3.293-2.783 5.522-5.146 6.447-2.18.853-4.71 1.047-7.91 1.293-1.382.106-2.948.226-4.653.415-2.25.248-4.512 1.091-6.906 1.984-3.082 1.149-6.258 2.332-9.673 2.332" id="Fill-235" fill="#3D3E3C"/></g></g></g></g></g></svg>