<svg width="31" height="36" xmlns="http://www.w3.org/2000/svg"><g id="Page-1" stroke="none" stroke-width="1" fill="none" fill-rule="evenodd"><g id="Mobile-375" transform="translate(-201 -883)"><g id="main-screen" transform="translate(-18.604)"><g id="Icons+text" transform="translate(38.604 812.815)"><g id="no-preservatives-icon" transform="translate(181.713 71.26)"><g id="icon"><path d="M6.45 4.693C3.342 18.924 1.375 27.127.545 29.3c-1.335 3.1-.05 5.18 2.001 5.18h17.62c2.289-.345 3.106-1.797 2.452-4.356C21.638 26.288 15.1 6.721 15.1 4.693c2.894 0 2.031-2.45 2.031-4.693H4.621c-.236 1.987-.236 3.282 0 3.887.236.606.845.874 1.828.806Z" id="Path-22" stroke="#3D3E3C" stroke-width=".583" stroke-linecap="round"/><path d="M4.184 21.226c-1.154 4.882-1.778 7.551-1.872 8.008-.14.685-.998 3.503.664 3.503h17.287c1.22 0 1.22-2.542-.58-7.776-1.801-5.234-3.221-10.563-4.013-13.114-1.01 4.99-4.84 8.116-11.486 9.38Z" id="Path-23" stroke="#3D3E3C" stroke-width=".583" fill="#3D3E3C" stroke-linecap="round"/><path d="M4.524 27.742c-.663 1.294-.83 2.481-.497 3.562" id="Path-24" stroke="#EEEAE9" stroke-width=".778" stroke-linecap="round"/><ellipse id="Oval" stroke="#3D3E3C" stroke-width=".583" fill="#EEEAE9" cx="9.943" cy="14.622" rx="1.111" ry="1.129"/><circle id="Oval" stroke="#3D3E3C" stroke-width=".583" fill="#EEEAE9" cx="12.047" cy="8.585" r="1"/></g><g id="preservatives-icon" transform="translate(16.257 19.42)"><ellipse id="Oval" stroke="#3D3E3C" stroke-width=".778" fill="#EEEAE9" cx="6.58" cy="6.738" rx="6.191" ry="6.349"/><g id="x" transform="translate(3.87 3.567)" fill="#3D3E3C" fill-rule="nonzero"><path d="M4.408 6.257a98.618 98.618 0 0 0-1.612-1.88c-.5.844-.926 1.418-1.277 1.724-.526.458-1.161.721-1.48 0-.212-.482.432-1.41 1.931-2.785C.62 1.85-.023.975.04.691.132.265.294.09.77.09c.315 0 .617.154.905.462l1.333 1.713c.709-1.074 1.288-1.74 1.738-2C5.42-.123 5.957-.13 5.98.552c.016.455-.7 1.376-2.147 2.764C5.265 4.661 5.98 5.567 5.98 6.034c0 .701-1.062.843-1.573.223Z" id="Path"/></g></g></g></g></g></g></g></svg>