<svg width="42" height="39" xmlns="http://www.w3.org/2000/svg"><g id="Page-1" stroke="none" stroke-width="1" fill="none" fill-rule="evenodd"><g id="Mobile-375" transform="translate(-22 -879)"><g id="main-screen" transform="translate(-18.604)"><g id="Icons+text" transform="translate(38.604 812.815)"><g id="sausage-icon" transform="translate(2.808 67.025)"><g id="sausage-" transform="translate(.847 .856)"><path d="M36.568 22.55c-.106-.172-3.61-3.082-3.811-3.076a.375.375 0 0 1-.374-.354c-.01-.316-.057-.63-.106-.962a11.584 11.584 0 0 1-.1-.786c-.064-.805.075-1.46.413-1.947.413-.594 1.276-.987 2.007-.614.462.236.698.68.906 1.071.086.162.168.314.26.447.349.506.97.814 1.58.786.092-.004.186-.014.28-.025.357-.038.761-.08 1.133.143.44.264.659.811.615 1.54a5.006 5.006 0 0 1-2.303 3.893.36.36 0 0 1-.5-.117Z" id="Fill-212" fill="#3D3E3C"/><path d="M24.1 8.029a.365.365 0 0 1-.256-.448c.052-.195-1.736-3.596-1.907-3.701a.366.366 0 0 1-.12-.503c.492-.81 1.002-1.648 1.734-2.316.852-.776 1.88-1.154 2.824-1.042 1.17.142 2.106 1.097 2.13 2.174.01.447-.125.85-.256 1.241-.034.1-.068.2-.098.3-.153.5-.154.882-.004 1.135.088.15.242.291.404.441.32.294.715.66.657 1.219-.043.42-.341.774-.888 1.054a5.945 5.945 0 0 1-4.22.446Z" id="Fill-211" fill="#3D3E3C"/><path d="M24.371 3.04c-.07-.091-.229-.144-.33-.066a2.817 2.817 0 0 0-.771.907c-.03.051-.056.103-.084.155-.015.028-.033.054-.047.084a.36.36 0 0 0 .002.347c.083.154.282.19.427.113.12-.065.158-.178.174-.3a1.747 1.747 0 0 1 .062-.21v-.001l.007-.014c.042-.095.094-.185.152-.271l.039-.057.02-.025a2.169 2.169 0 0 1 .33-.323.256.256 0 0 0 .02-.339" id="Fill-197" fill="#EEEAE9"/><path d="M25.671 4.102c-.119-.11-.266-.096-.386 0l-.036.029-.008.006a5.47 5.47 0 0 1-.256.182 4.524 4.524 0 0 1-.355.213 3.364 3.364 0 0 1-.273.13l-.01.005-.037.015c-.16.064-.348.094-.48.21-.087.076-.102.219-.06.32.046.11.148.172.266.179.108.006.207-.048.303-.09a6.668 6.668 0 0 0 .583-.292c.265-.149.514-.325.75-.518.11-.092.1-.295 0-.389" id="Fill-198" fill="#EEEAE9"/><path d="M25.265 5.903c-.213-.016-.426-.03-.638-.05l-.313-.028-.157-.014a.389.389 0 0 0-.3.103c-.123.111-.096.295 0 .41.107.128.293.117.445.125l.325.017c.213.011.425.027.638.041.157.011.307-.146.3-.302-.008-.173-.132-.29-.3-.302" id="Fill-199" fill="#EEEAE9"/><path d="m34.154 18.705-.001-.445c0-.15-.13-.292-.284-.285a.29.29 0 0 0-.283.285l-.001.445c0 .178-.028.381.058.543.092.171.361.171.452 0a.656.656 0 0 0 .059-.325v-.218" id="Fill-200" fill="#EEEAE9"/><path d="M35.5 18.836a.305.305 0 0 0-.178-.138.301.301 0 0 0-.23.03c-.06.04-.126.104-.137.18-.04.263-.111.52-.213.766-.042.1-.077.201-.046.316a.27.27 0 0 0 .16.18c.086.036.16.023.244-.014.133-.06.187-.225.236-.35a3.175 3.175 0 0 0 .195-.739c.012-.083.014-.156-.03-.231" id="Fill-201" fill="#EEEAE9"/><path d="M37.048 19.238c-.128-.068-.335-.045-.402.106a5.313 5.313 0 0 1-.615 1.046l-.059.08a6.817 6.817 0 0 1-.037.05l-.013.017c.024-.032-.01.011-.014.017-.02.027-.044.054-.063.083a.542.542 0 0 0-.069.148.297.297 0 0 0 .432.334c.088-.047.146-.124.205-.201.046-.06.092-.12.136-.181a6.974 6.974 0 0 0 .605-1.094c.062-.141.046-.325-.106-.405" id="Fill-202" fill="#EEEAE9"/><path d="M19.14 2.357c2.461.108 4.162 1.059 4.787 2.676 1.804 4.66-1.767 6.383-6.288 8.566-1.028.496-2.09 1.009-3.172 1.593-2.598 1.402-2.896 3.878-2.308 5.729.854 2.685 3.898 5.305 8.557 4.71 2.718-.347 4.899-2.222 6.822-3.876 1.9-1.634 3.548-3.04 5.394-2.89 1.112.092 2.17.754 3.231 2.024 1.622 1.94 1.746 4.565.34 7.203-2.559 4.807-9.636 9.163-18.775 9.163-1.075 0-2.179-.06-3.307-.188-5.11-.575-9.719-3.782-12.327-8.58-2.616-4.81-2.791-10.507-.468-15.237C5.089 6.198 13.41 2.114 19.14 2.357Z" id="Fill-210" fill="#3D3E3C"/><path d="M2.268 18.144a9.33 9.33 0 0 0-.164 1.373c-.019.445-.025.94.114 1.366.082.25.527.314.57 0 .06-.42.031-.85.045-1.274.013-.428.046-.855.11-1.278a9.032 9.032 0 0 1 .73-2.47c.167-.364-.367-.683-.54-.317-.39.828-.691 1.7-.865 2.6Z" id="Fill-203" fill="#EEEAE9"/><path d="M3.554 23.984c-.036-.05-.062-.103-.088-.158a.777.777 0 0 1-.024-.087.737.737 0 0 1 0-.077c.007-.027.013-.054.022-.081.012-.03.02-.06.022-.093a.3.3 0 0 0-.007-.157.395.395 0 0 0-.718-.094c-.029.065-.06.13-.076.2-.017.071-.026.145-.03.217a1.037 1.037 0 0 0 .327.809l.08.062.09.038.028.011a.347.347 0 0 0 .22 0 .37.37 0 0 0 .174-.12.362.362 0 0 0 .072-.203.42.42 0 0 0-.06-.217c-.008-.018-.02-.034-.032-.05Z" id="Fill-204" fill="#EEEAE9"/><path d="M33.265 28.036a2.806 2.806 0 0 1-.22.375l-.038.053-.005.007-.003.003c-.121.151-.254.291-.4.417-.032.028-.065.06-.1.082a3.113 3.113 0 0 1-.32.208c-.166.095-.335.184-.499.284-.12.073-.195.232-.15.372.04.126.17.26.316.242a1.643 1.643 0 0 0 .704-.236 3.434 3.434 0 0 0 1.33-1.446c.082-.168.05-.395-.128-.49-.16-.085-.4-.05-.487.129Z" id="Fill-205" fill="#EEEAE9"/><path d="M12.522 16.316a.274.274 0 0 1-.145-.36l1.147-2.725a.271.271 0 0 1 .357-.145c.139.058.204.22.145.359l-1.147 2.725a.272.272 0 0 1-.357.146Z" id="Fill-206" fill="#EEEAE9"/><path d="M14.34 15.106a.274.274 0 0 1-.176-.344l.73-2.282a.273.273 0 1 1 .518.167l-.73 2.282a.272.272 0 0 1-.342.177Z" id="Fill-207" fill="#EEEAE9"/><path d="M15.932 14.214a.275.275 0 0 1-.169-.348l.645-1.877a.272.272 0 1 1 .515.18l-.645 1.876a.273.273 0 0 1-.346.17Z" id="Fill-208" fill="#EEEAE9"/><path d="M17.653 13.432a.275.275 0 0 1-.162-.352l.567-1.549a.273.273 0 1 1 .512.19l-.568 1.548a.273.273 0 0 1-.35.163Z" id="Fill-209" fill="#EEEAE9"/></g><g id="sausage" fill="#3D3E3C"><path d="M22.013 2.726c-.064-.082-.207-.13-.3-.06a2.534 2.534 0 0 0-.695.814l-.076.138c-.014.026-.03.05-.042.075a.321.321 0 0 0 .002.312c.074.138.254.17.385.101.11-.058.143-.16.157-.269a1.557 1.557 0 0 1 .057-.189 1.635 1.635 0 0 1 .143-.256l.035-.05.019-.023a1.949 1.949 0 0 1 .297-.29.229.229 0 0 0 .018-.303" id="Fill-197"/><path d="M23.187 3.678c-.107-.099-.24-.086-.349 0l-.032.026-.007.005a4.938 4.938 0 0 1-.232.163 4.093 4.093 0 0 1-.32.191A3.048 3.048 0 0 1 22 4.18l-.01.004-.033.013c-.144.058-.314.085-.433.189-.079.068-.093.196-.054.286.042.1.133.155.24.161.098.006.187-.042.274-.08a6.045 6.045 0 0 0 .526-.262c.24-.133.464-.291.677-.465.1-.082.092-.264 0-.348" id="Fill-198"/><path d="M22.82 5.293c-.192-.015-.385-.028-.577-.045l-.282-.026c-.047-.004-.094-.01-.142-.012a.353.353 0 0 0-.27.092c-.112.1-.087.265 0 .368.096.115.264.105.4.112l.294.015c.193.01.385.024.577.037.142.01.277-.131.271-.27-.007-.156-.12-.26-.271-.271" id="Fill-199"/><path d="M30.848 16.77v-.399c0-.134-.118-.262-.256-.256a.26.26 0 0 0-.257.256v.399c0 .16-.025.342.052.487.083.153.326.153.409 0a.584.584 0 0 0 .053-.291v-.196" id="Fill-200"/><path d="M32.065 16.887a.275.275 0 0 0-.16-.124.274.274 0 0 0-.209.027c-.055.036-.114.094-.124.161-.035.237-.1.467-.192.687-.039.091-.07.181-.042.284.02.075.074.132.144.161.078.033.146.021.221-.012.12-.054.17-.202.214-.314a2.833 2.833 0 0 0 .175-.662c.011-.075.013-.14-.027-.208" id="Fill-201"/><path d="M33.463 17.248c-.116-.062-.302-.04-.364.095a4.752 4.752 0 0 1-.555.938l-.053.071-.033.045-.012.015c.021-.028-.009.01-.013.016-.019.024-.04.049-.057.075a.484.484 0 0 0-.062.131.265.265 0 0 0 .095.28.27.27 0 0 0 .295.02c.08-.042.132-.111.185-.18.042-.054.084-.107.123-.162a6.236 6.236 0 0 0 .547-.98c.055-.128.041-.292-.096-.364" id="Fill-202"/><path d="M2.83 13.936a9.85 9.85 0 0 0-.782 2.331c-.078.405-.13.819-.148 1.231-.017.399-.022.842.103 1.224.074.225.476.282.516 0 .053-.376.027-.762.04-1.141a9.93 9.93 0 0 1 .098-1.146 8.053 8.053 0 0 1 .66-2.215c.152-.326-.331-.612-.487-.284" id="Fill-203"/><path d="M3.24 21.548c-.008-.016-.019-.03-.03-.045-.033-.044-.056-.093-.08-.142a.693.693 0 0 1-.02-.078.656.656 0 0 1 0-.068c.005-.025.01-.05.02-.073a.261.261 0 0 0 .018-.084.267.267 0 0 0-.006-.14.36.36 0 0 0-.163-.212.359.359 0 0 0-.273-.036c-.082.026-.176.08-.212.163-.026.058-.054.118-.069.18-.015.063-.024.13-.028.194a.923.923 0 0 0 .296.725c.024.02.048.038.073.056l.08.034.026.01c.06.02.139.024.2 0a.335.335 0 0 0 .156-.107.323.323 0 0 0 .065-.183.374.374 0 0 0-.053-.194" id="Fill-204"/><path d="M30.486 25.02c-.145-.076-.36-.045-.44.116a2.51 2.51 0 0 1-.199.336l-.034.048c-.003.002-.003.003-.005.006l-.002.003c-.11.135-.23.26-.362.374-.029.024-.058.053-.09.073a2.812 2.812 0 0 1-.288.186c-.151.085-.304.165-.452.255-.108.065-.176.208-.136.333.037.114.155.233.286.217a1.493 1.493 0 0 0 .636-.211 3.081 3.081 0 0 0 1.201-1.297c.074-.15.046-.354-.115-.439" id="Fill-205"/><path d="M11.406 14.647a.245.245 0 0 1-.227-.341l1.036-2.444a.246.246 0 0 1 .453.192l-1.035 2.443a.246.246 0 0 1-.227.15" id="Fill-206"/><path d="M13.027 13.555a.247.247 0 0 1-.234-.32l.659-2.046a.245.245 0 1 1 .469.15l-.66 2.046a.246.246 0 0 1-.234.17" id="Fill-207"/><path d="M14.47 12.757a.246.246 0 0 1-.233-.326l.583-1.682a.246.246 0 0 1 .465.16l-.582 1.683a.246.246 0 0 1-.233.165" id="Fill-208"/><path d="M16.03 12.057a.247.247 0 0 1-.232-.33l.513-1.389a.247.247 0 0 1 .462.17l-.513 1.388c-.037.1-.13.161-.23.161" id="Fill-209"/><path d="M16.013 33.4c-.971 0-1.968-.053-2.988-.167-4.615-.516-8.778-3.391-11.133-7.692-2.363-4.314-2.522-9.421-.424-13.662 3.128-6.322 10.645-9.984 15.82-9.766 2.223.097 3.759.95 4.324 2.4 1.629 4.176-1.597 5.722-5.68 7.68-.928.444-1.888.904-2.865 1.427-2.347 1.257-2.616 3.478-2.084 5.136.77 2.408 3.52 4.757 7.728 4.223 2.455-.31 4.425-1.991 6.162-3.474 1.716-1.465 3.205-2.726 4.872-2.592 1.005.083 1.96.676 2.919 1.815 1.464 1.74 1.576 4.093.307 6.458-2.312 4.31-8.704 8.215-16.958 8.215Zm.825-30.641c-4.97 0-11.946 3.68-14.781 9.41-2.034 4.11-1.884 8.87.41 13.057C4.722 29.34 8.696 32.09 13.1 32.582c6.934.775 16.052-1.663 19.294-7.706 1.152-2.147 1.07-4.18-.232-5.726-.84-.999-1.649-1.517-2.47-1.585-1.391-.111-2.787 1.068-4.392 2.438-1.807 1.542-3.855 3.29-6.506 3.626-4.582.581-7.585-2.016-8.436-4.673-.768-2.4.174-4.72 2.4-5.913.99-.53 1.956-.993 2.89-1.441C19.72 9.65 22.41 8.362 21 4.75c-.465-1.193-1.794-1.897-3.741-1.982a9.516 9.516 0 0 0-.421-.01Z" id="Fill-210"/><path d="M23.14 7.376c-.463 0-.925-.058-1.371-.178a.327.327 0 1 1 .17-.633 4.75 4.75 0 0 0 3.342-.35c.195-.099.43-.254.448-.429.017-.166-.135-.314-.384-.542-.167-.153-.357-.327-.486-.543-.238-.399-.258-.905-.06-1.546.03-.095.062-.19.094-.286.105-.31.204-.603.197-.888-.015-.69-.709-1.236-1.346-1.313-.664-.08-1.403.2-2.03.768-.593.536-1.028 1.247-1.449 1.934a.328.328 0 0 1-.56-.342c.445-.727.905-1.478 1.567-2.077.77-.696 1.698-1.034 2.55-.934 1.057.128 1.903.983 1.925 1.949.01.4-.114.763-.232 1.113-.03.09-.06.179-.088.269-.138.448-.14.79-.004 1.018.08.133.218.26.365.395.288.263.646.59.594 1.093-.04.375-.309.693-.802.944a5.403 5.403 0 0 1-2.44.578" id="Fill-211"/><path d="M33.308 20.371a.328.328 0 0 1-.174-.605 3.819 3.819 0 0 0 1.772-2.974c.011-.185.01-.632-.237-.78-.149-.088-.376-.064-.617-.038a4.86 4.86 0 0 1-.293.025 2.364 2.364 0 0 1-1.996-.985c-.105-.15-.191-.31-.274-.466-.163-.304-.304-.566-.537-.685-.327-.165-.769.043-.978.341-.216.31-.302.752-.256 1.318.017.217.05.433.084.66.046.304.093.618.103.94a.328.328 0 0 1-.318.337.338.338 0 0 1-.338-.317c-.009-.283-.051-.564-.096-.862-.035-.229-.07-.465-.09-.705-.058-.722.068-1.309.373-1.745.373-.534 1.153-.885 1.813-.55.417.21.63.608.819.96.077.144.15.28.234.4.315.453.876.73 1.427.704.083-.003.168-.012.253-.022.323-.034.688-.072 1.024.128.397.237.594.728.555 1.381a4.483 4.483 0 0 1-2.08 3.49.327.327 0 0 1-.173.05" id="Fill-212"/></g></g></g></g></g></g></svg>